#!OML:ASF I:\Actors\actors\Patient Classification 2\Patient 1\Session 1\actor1.ASF
:FULLY-SPECIFIED
:DEGREES
1000
root -0.777924 18.6452 6.13465 -0.428764 -0.10847 -1.26538
lowerback 2.86507 0.0927891 0.85306
upperback -2.51692 0.182471 0.458931
thorax -4.19881 0.0725993 -0.0168571
lowerneck -11.2809 -2.16179 -1.12227
upperneck 24.1421 -3.33966 2.08069
head 9.52468 -1.43329 0.525392
rclavicle 1.04393e-014 7.10034e-015
rhumerus -47.7607 -3.32507 -85.7835
rradius 49.9251
rwrist 11.9414
rhand -6.98211 -29.2283
rfingers 7.12502
rthumb 18.888 301.669
lclavicle 1.04393e-014 7.10034e-015
lhumerus -42.3361 -0.81164 89.4816
lradius 51.0251
lwrist 7.87326
lhand -11.6225 -27.4077
lfingers 7.12502
lthumb 14.4207 2.0713
rfemur 0 0 0
rtibia 0
rfoot 0 0
rtoes 0
lfemur -1.32755 -5.00448 -12.6757
ltibia 20.7438
lfoot -21.6735 11.498
ltoes -56.8618
1001
root -0.781371 18.6416 6.14973 -0.505453 -0.176894 -1.28531
lowerback 2.70958 0.0883954 0.833121
upperback -2.52637 0.174195 0.469723
thorax -4.12053 0.0694815 0.00622804
lowerneck -11.1001 -2.18923 -1.37374
upperneck 24.0789 -3.4118 2.42932
head 9.48071 -1.4539 0.681962
rclavicle -7.8718e-015 3.66509e-016
rhumerus -47.3122 -3.53728 -85.6834
rradius 48.9867
rwrist 12.9201
rhand -7.41243 -29.1743
rfingers 7.12502
rthumb 18.4741 301.683
lclavicle -7.8718e-015 3.66509e-016
lhumerus -42.2316 -0.713495 89.6
lradius 50.6133
lwrist 7.43355
lhand -11.4541 -27.5308
lfingers 7.12502
lthumb 14.583 1.93657
rfemur 0 0 0
rtibia 0
rfoot 0 0
rtoes 0
lfemur -1.14138 -5.15008 -12.6861
ltibia 20.7157
lfoot -21.7994 11.6349
ltoes -56.8261
1002
root -0.781998 18.6381 6.16341 -0.607627 -0.195227 -1.25921
lowerback 2.60698 0.0616849 0.802828
upperback -2.5228 0.135387 0.457618
thorax -4.05886 0.0510715 0.013259
lowerneck -10.9586 -2.20315 -1.54856
upperneck 24.1139 -3.46216 2.68838
head 9.47552 -1.46625 0.796673
rclavicle -5.48813e-015 -4.19311e-016
rhumerus -46.7379 -3.87234 -85.4922
rradius 47.8963
rwrist 13.6364
rhand -7.37001 -29.2836
rfingers 7.12502
rthumb 18.5149 301.578
lclavicle -5.48813e-015 -4.19311e-016
lhumerus -42.0788 -0.631638 89.7254
lradius 49.9735
lwrist 7.02991
lhand -11.1443 -27.4366
lfingers 7.12502
lthumb 14.8815 2.00895
rfemur 0 0 0
rtibia 0
rfoot 0 0
rtoes 0
lfemur -0.951927 -5.26276 -12.7481
ltibia 20.6973
lfoot -21.9089 11.7069
ltoes -56.8025
1003
root -0.782716 18.6356 6.17412 -0.677868 -0.185033 -1.20779
lowerback 2.4904 0.024967 0.715773
upperback -2.50616 0.0814476 0.469762
thorax -3.97588 0.0272049 0.0778574
lowerneck -10.8833 -2.17996 -1.60001
upperneck 24.2021 -3.42904 2.71415
head 9.49285 -1.45283 0.818953
rclavicle -8.18278e-015 4.47266e-015
rhumerus -46.0439 -4.29559 -85.2003
rradius 46.5538
rwrist 14.6222
rhand -7.48979 -29.2124
rfingers 7.12502
rthumb 18.3997 301.638
lclavicle -8.18278e-015 4.47266e-015
lhumerus -41.8723 -0.603828 89.9252
lradius 49.129
lwrist 6.93546
lhand -10.8032 -27.3987
lfingers 7.12502
lthumb 15.2101 2.02224
rfemur 0 0 0
rtibia 0
rfoot 0 0
rtoes 0
lfemur -0.828215 -5.28855 -12.8163
ltibia 20.6827
lfoot -21.9575 11.6986
ltoes -56.7483
1004
root -0.783936 18.6344 6.18174 -0.678887 -0.198872 -1.22009
lowerback 2.33215 0.00476462 0.676269
upperback -2.49576 0.0522142 0.504842
thorax -3.87558 0.0145651 0.137804
lowerneck -10.8537 -2.14504 -1.56963
upperneck 24.2932 -3.37345 2.64963
head 9.51616 -1.43081 0.798288
rclavicle -7.45443e-016 3.41661e-015
rhumerus -45.3691 -4.84961 -84.8636
rradius 45.1565
rwrist 15.8281
rhand -7.33717 -29.2066
rfingers 7.12502
rthumb 18.5465 301.658
lclavicle -7.45443e-016 3.41661e-015
lhumerus -41.6023 -0.685146 90.1858
lradius 48.0402
lwrist 7.25568
lhand -10.7737 -27.5609
lfingers 7.12502
lthumb 15.2384 1.85782
rfemur 0 0 0
rtibia 0
rfoot 0 0
rtoes 0
lfemur -0.790971 -5.29099 -12.8002
ltibia 20.6679
lfoot -21.9827 11.681
ltoes -56.6317
1005
root -0.784656 18.6341 6.18893 -0.668026 -0.202611 -1.26504
lowerback 2.18263 -0.00536267 0.69428
upperback -2.48247 0.0380549 0.515947
thorax -3.77717 0.00740681 0.139861
lowerneck -10.855 -2.12768 -1.47743
upperneck 24.3876 -3.35425 2.58034
head 9.54639 -1.42029 0.760971
rclavicle 3.52532e-015 -2.70844e-015
rhumerus -44.7766 -5.50428 -84.5349
rradius 43.832
rwrist 17.0705
rhand -7.10739 -29.3531
rfingers 7.12502
rthumb 18.7675 301.532
lclavicle 3.52532e-015 -2.70844e-015
lhumerus -41.3225 -0.962718 90.4529
lradius 46.8413
lwrist 7.75764
lhand -11.0123 -27.5166
lfingers 7.12502
lthumb 15.0087 1.91945
rfemur 0 0 0
rtibia 0
rfoot 0 0
rtoes 0
lfemur -0.767532 -5.3801 -12.7623
ltibia 20.6566
lfoot -22.0316 11.7397
ltoes -56.5596
1006
root -0.785741 18.6339 6.19694 -0.692853 -0.153539 -1.24643
lowerback 2.07771 -0.0194384 0.663866
upperback -2.45293 0.0158923 0.492215
thorax -3.68721 -0.00291583 0.133562
lowerneck -10.8697 -2.12977 -1.42887
upperneck 24.4425 -3.36203 2.55191
head 9.56741 -1.422 0.741885
rclavicle 1.29039e-014 -5.46658e-016
rhumerus -44.2773 -6.21906 -84.1926
rradius 42.5893
rwrist 18.2744
rhand -7.3892 -29.3753
rfingers 7.12502
rthumb 18.4965 301.484
lclavicle 1.29039e-014 -5.46658e-016
lhumerus -41.0659 -1.2974 90.6985
lradius 45.5814
lwrist 7.99191
lhand -11.4307 -27.4452
lfingers 7.12502
lthumb 14.6056 2.02052
rfemur 0 0 0
rtibia 0
rfoot 0 0
rtoes 0
lfemur -0.719155 -5.53191 -12.8081
ltibia 20.6602
lfoot -22.0658 11.8501
ltoes -56.5653
1007
root -0.786535 18.6335 6.20505 -0.736175 -0.0821749 -1.2196
lowerback 1.99687 -0.0377979 0.633089
upperback -2.40911 -0.0116907 0.469988
thorax -3.59615 -0.0159103 0.129229
lowerneck -10.886 -2.14749 -1.47305
upperneck 24.4794 -3.389 2.59249
head 9.58579 -1.43367 0.760159
rclavicle 1.1215e-014 -1.91486e-015
rhumerus -43.9238 -6.82773 -83.8839
rradius 41.5474
rwrist 19.3504
rhand -7.97268 -29.2557
rfingers 7.12502
rthumb 17.9351 301.551
lclavicle 1.1215e-014 -1.91486e-015
lhumerus -40.7671 -1.51201 90.9199
lradius 44.203
lwrist 7.71822
lhand -12.0029 -27.5851
lfingers 7.12502
lthumb 14.0542 1.91969
rfemur 0 0 0
rtibia 0
rfoot 0 0
rtoes 0
lfemur -0.66985 -5.55905 -12.8373
ltibia 20.6747
lfoot -22.0451 11.7991
ltoes -56.551
1008
root -0.785811 18.6339 6.21212 -0.7396 -0.0121637 -1.22142
lowerback 1.88898 -0.0598014 0.617747
upperback -2.36978 -0.0429751 0.470784
thorax -3.4945 -0.0308417 0.140003
lowerneck -10.8987 -2.16366 -1.54311
upperneck 24.5118 -3.41282 2.6513
head 9.60265 -1.44431 0.789543
rclavicle -3.96152e-015 -1.38683e-015
rhumerus -43.7572 -7.1424 -83.6737
rradius 40.8392
rwrist 20.1181
rhand -8.29613 -29.1684
rfingers 7.12502
rthumb 17.6239 301.61
lclavicle -3.96152e-015 -1.38683e-015
lhumerus -40.4464 -1.50701 91.0897
lradius 42.8265
lwrist 6.98996
lhand -12.4987 -27.5559
lfingers 7.12502
lthumb 13.5764 1.98145
rfemur 0 0 0
rtibia 0
rfoot 0 0
rtoes 0
lfemur -0.677561 -5.42299 -12.8042
ltibia 20.6858
lfoot -21.9537 11.5701
ltoes -56.5586
1009
root -0.784003 18.6345 6.21866 -0.699672 0.0217257 -1.22624
lowerback 1.75857 -0.0759404 0.600446
upperback -2.34028 -0.0666478 0.469949
thorax -3.39031 -0.0419887 0.149702
lowerneck -10.9889 -2.15368 -1.35949
upperneck 24.6264 -3.38083 2.41509
head 9.652 -1.43669 0.679302
rclavicle 5.06183e-015 -6.33626e-016
rhumerus -43.7727 -7.22119 -83.5858
rradius 40.4896
rwrist 20.5792
rhand -8.40848 -29.0661
rfingers 7.12502
rthumb 17.5158 301.703
lclavicle 5.06183e-015 -6.33626e-016
lhumerus -40.1976 -1.29255 91.1472
lradius 41.6175
lwrist 6.00243
lhand -12.8268 -27.3504
lfingers 7.12502
lthumb 13.2602 2.20783
rfemur 0 0 0
rtibia 0
rfoot 0 0
rtoes 0
lfemur -0.729251 -5.22028 -12.7671
ltibia 20.6942
lfoot -21.8307 11.3666
ltoes -56.5973
1010
root -0.781861 18.6343 6.22624 -0.659855 0.0323943 -1.20386
lowerback 1.67217 -0.092762 0.568778
upperback -2.32985 -0.0918694 0.443013
thorax -3.33072 -0.0540196 0.140734
lowerneck -11.1332 -2.12617 -0.937028
upperneck 24.8282 -3.30921 1.91012
head 9.73276 -1.41734 0.438905
rclavicle 1.10217e-014 -1.30452e-015
rhumerus -43.9391 -7.12056 -83.6332
rradius 40.4047
rwrist 20.817
rhand -8.57676 -28.879
rfingers 7.12502
rthumb 17.3538 301.876
lclavicle 1.10217e-014 -1.30452e-015
lhumerus -40.1449 -1.00517 91.0956
lradius 40.7125
lwrist 5.01578
lhand -13.0134 -27.2342
lfingers 7.12502
lthumb 13.0803 2.33558
rfemur 0 0 0
rtibia 0
rfoot 0 0
rtoes 0
lfemur -0.759346 -5.15444 -12.7901
ltibia 20.7003
lfoot -21.8148 11.3212
ltoes -56.6025
1011
root -0.779195 18.6343 6.23447 -0.593656 0.0599588 -1.14141
lowerback 1.57613 -0.111666 0.511971
upperback -2.33517 -0.120908 0.403791
thorax -3.28194 -0.0675419 0.133349
lowerneck -11.2367 -2.11738 -0.763908
upperneck 24.9416 -3.27921 1.68402
head 9.78518 -1.41076 0.33298
rclavicle -6.06914e-015 1.2921e-015
rhumerus -44.2321 -6.80151 -83.7836
rradius 40.5597
rwrist 20.6627
rhand -8.5927 -28.6699
rfingers 7.12502
rthumb 17.3385 302.084
lclavicle -6.06914e-015 1.2921e-015
lhumerus -40.2473 -0.584503 90.9626
lradius 40.0347
lwrist 4.05214
lhand -13.0137 -27.2489
lfingers 7.12502
lthumb 13.08 2.32093
rfemur 0 0 0
rtibia 0
rfoot 0 0
rtoes 0
lfemur -0.797414 -5.24224 -12.8817
ltibia 20.6889
lfoot -21.8761 11.399
ltoes -56.6319
1012
root -0.776728 18.6352 6.24276 -0.474256 0.0828331 -1.08187
lowerback 1.40494 -0.111149 0.467312
upperback -2.34241 -0.123998 0.365828
thorax -3.1927 -0.0683797 0.1191
lowerneck -11.1788 -2.15078 -0.985153
upperneck 24.8059 -3.34441 1.95523
head 9.73591 -1.43303 0.458109
rclavicle 7.79143e-015 2.50966e-015
rhumerus -44.621 -6.34803 -83.985
rradius 40.9223
rwrist 20.1981
rhand -8.48084 -28.5397
rfingers 7.12502
rthumb 17.4461 302.223
lclavicle 7.79143e-015 2.50966e-015
lhumerus -40.4256 -0.0374883 90.7714
lradius 39.5505
lwrist 3.13703
lhand -12.8064 -27.2217
lfingers 7.12502
lthumb 13.2798 2.33523
rfemur 0 0 0
rtibia 0
rfoot 0 0
rtoes 0
lfemur -0.877157 -5.37295 -12.9721
ltibia 20.6563
lfoot -21.9451 11.5083
ltoes -56.6115
1013
root -0.776452 18.6376 6.25052 -0.324033 0.0766786 -1.02964
lowerback 1.23024 -0.0961207 0.403068
upperback -2.36732 -0.108003 0.326061
thorax -3.11968 -0.0593075 0.113261
lowerneck -11.0292 -2.17638 -1.1455
upperneck 24.5559 -3.39747 2.18368
head 9.62669 -1.45073 0.560436
rclavicle -1.00635e-015 4.62174e-015
rhumerus -45.0479 -5.85504 -84.2087
rradius 41.351
rwrist 19.6903
rhand -8.41282 -28.4967
rfingers 7.12502
rthumb 17.5116 302.272
lclavicle -1.00635e-015 4.62174e-015
lhumerus -40.7312 0.414421 90.5728
lradius 39.3541
lwrist 2.52255
lhand -12.411 -27.1004
lfingers 7.12502
lthumb 13.6609 2.43128
rfemur 0 0 0
rtibia 0
rfoot 0 0
rtoes 0
lfemur -0.988205 -5.48547 -13.0374
ltibia 20.6235
lfoot -22.0193 11.605
ltoes -56.569
